<?xml version="1.0" encoding="UTF-8" standalone="no"?>
<svg
   xmlns:dc="http://purl.org/dc/elements/1.1/"
   xmlns:cc="http://creativecommons.org/ns#"
   xmlns:rdf="http://www.w3.org/1999/02/22-rdf-syntax-ns#"
   xmlns:svg="http://www.w3.org/2000/svg"
   xmlns="http://www.w3.org/2000/svg"
   viewBox="0 0 234.33333 82.146667"
   height="82.146667"
   width="234.33333"
   xml:space="preserve"
   id="svg2"
   version="1.1"><metadata
     id="metadata8"><rdf:RDF><cc:Work
         rdf:about=""><dc:format>image/svg+xml</dc:format><dc:type
           rdf:resource="http://purl.org/dc/dcmitype/StillImage" /></cc:Work></rdf:RDF></metadata><defs
     id="defs6" /><g
     transform="matrix(1.3333333,0,0,-1.3333333,0,82.146667)"
     id="g10"><g
       transform="scale(0.1)"
       id="g12"><path
         id="path14"
         style="fill:#ffffff;fill-opacity:1;fill-rule:nonzero;stroke:none"
         d="m 35.9922,93.6211 c 6.1797,0 11.0391,0.4414 15.8984,1.1055 5.2969,1.1015 9.9375,2.8711 13.6875,5.2934 6.8438,4.863 12.8047,13.914 12.8047,24.738 0.6641,11.695 -5.9609,20.972 -12.8047,25.601 -7.5078,5.305 -16.3398,6.633 -30.25,6.633 H 10.8203 V 93.6211 Z M 48.3555,83.2422 100.465,9.27734 H 87.4375 L 35.3281,82.8047 H 10.8203 V 9.27734 H 0 V 167.813 h 35.3281 c 16.5625,0 26.7188,-1.766 36.4297,-8.614 5.5235,-4.199 9.9375,-9.277 13.0274,-15.234 2.8711,-6.184 4.1953,-12.586 4.1953,-19.207 -1.1055,-25.6174 -17,-38.2033 -40.625,-41.5158" /><path
         id="path16"
         style="fill:#ffffff;fill-opacity:1;fill-rule:nonzero;stroke:none"
         d="m 222.789,136.895 c -13.473,13.464 -30.031,20.312 -49.238,20.312 -19.211,0 -35.547,-6.848 -49.02,-20.312 -13.246,-13.692 -19.867,-30.032 -19.867,-49.0122 0,-19.2109 6.621,-35.332 19.867,-48.8008 13.473,-13.4687 29.809,-20.3125 49.02,-20.3125 19.207,0 35.765,6.8438 49.238,20.3125 13.465,13.4688 20.313,29.5899 20.313,48.8008 0,19.2072 -6.848,35.5472 -20.313,49.0122 z M 243.102,47.6953 C 229.855,26.0547 206.227,8.17578 173.551,8.17578 c -16.559,0 -28.926,3.75002 -39.965,10.37892 -21.856,13.0273 -39.7422,36.6484 -39.7422,69.3281 0,14.5662 3.5273,28.0352 10.3752,40.1832 12.59,21.414 37.312,39.961 69.332,39.961 32.015,0 56.961,-18.547 69.551,-39.961 7.285,-12.363 10.82,-25.832 10.82,-40.1832 0,-14.5742 -3.535,-27.8242 -10.82,-40.1875" /><path
         id="path18"
         style="fill:#ffffff;fill-opacity:1;fill-rule:nonzero;stroke:none"
         d="m 342.027,160.742 c 8.387,-4.199 15.899,-9.933 22.297,-16.777 l -8.168,-7.285 c -11.476,13.465 -35.765,26.054 -60.277,18.543 -11.262,-3.758 -21.195,-12.149 -23.402,-23.844 -2.649,-14.133 6.179,-23.188 16.117,-27.602 9.273,-3.9723 29.59,-6.4059 40.847,-8.6129 8.829,-2.4297 15.676,-5.9532 21.2,-10.3789 14.57,-12.3633 19.207,-35.9844 6.839,-54.0938 C 347.551,16.7852 329,5.96875 304.273,9.50391 285.504,12.1484 271.152,21.1992 261.879,33.7891 l 8.391,6.8476 c 10.156,-13.0312 27.156,-23.4101 49.457,-20.3242 6.179,0.8867 11.703,2.6563 16.336,5.3008 5.082,2.6484 9.273,6.4062 12.371,11.0469 9.269,13.2421 6.179,30.6836 -4.641,39.9609 -12.145,10.8203 -43.496,10.1562 -59.395,17.4414 -14.128,5.9575 -26.273,19.6485 -22.519,39.2965 3.976,20.762 22.961,34.668 47.691,34.668 12.364,0.887 22.965,-2.433 32.457,-7.285" /><path
         id="path20"
         style="fill:#ffffff;fill-opacity:1;fill-rule:nonzero;stroke:none"
         d="m 454.195,160.742 c 8.387,-4.199 15.899,-9.933 22.297,-16.777 l -8.168,-7.285 c -11.476,13.465 -35.765,26.054 -60.277,18.543 -11.262,-3.758 -21.195,-12.149 -23.402,-23.844 -2.649,-14.133 6.179,-23.188 16.117,-27.602 9.273,-3.9723 29.59,-6.4059 40.847,-8.6129 8.829,-2.4297 15.676,-5.9532 21.2,-10.3789 14.57,-12.3633 19.207,-35.9844 6.839,-54.0938 C 459.719,16.7852 441.168,5.96875 416.441,9.50391 397.672,12.1484 383.32,21.1992 374.047,33.7891 l 8.391,6.8476 c 10.156,-13.0312 27.156,-23.4101 49.457,-20.3242 6.179,0.8867 11.703,2.6563 16.335,5.3008 5.083,2.6484 9.274,6.4062 12.372,11.0469 9.269,13.2421 6.179,30.6836 -4.641,39.9609 -12.145,10.8203 -43.496,10.1562 -59.395,17.4414 -14.128,5.9575 -26.273,19.6485 -22.519,39.2965 3.976,20.762 22.961,34.668 47.691,34.668 12.364,0.887 22.965,-2.433 32.457,-7.285" /><path
         id="path22"
         style="fill:#ffffff;fill-opacity:1;fill-rule:nonzero;stroke:none"
         d="M 506.523,9.27734 H 495.707 V 168.027 h 10.816 V 9.27734" /><path
         id="path24"
         style="fill:#3673c2;fill-opacity:1;fill-rule:nonzero;stroke:none"
         d="M 585.141,167.977 635.168,28.8945 684.332,167.977 h 11.645 L 639.91,11.0078 639.477,9.27734 h -9.055 l -0.434,1.73046 -56.062,156.9692 h 11.215" /><path
         id="path26"
         style="fill:#3673c2;fill-opacity:1;fill-rule:nonzero;stroke:none"
         d="m 816.586,64.9219 c 0,-20.5352 -3.309,-31.5821 -13.242,-41.9531 -9.492,-9.9415 -22.52,-14.79302 -41.953,-13.46489 -7.508,0.65239 -14.348,2.20699 -20.313,4.85159 -7.285,3.0937 -12.808,7.5078 -17.223,13.0273 -8.832,10.1563 -10.82,19.6485 -10.82,39.7461 V 168.027 h 10.82 V 67.1289 c 0,-15.8984 1.106,-24.9492 8.172,-33.125 3.754,-4.4141 8.168,-7.7266 13.246,-9.9336 9.274,-3.7578 23.844,-5.0781 35.551,-2.207 18.547,5.293 24.953,18.5469 24.953,43.0586 V 168.027 h 10.809 V 64.9219" /><path
         id="path28"
         style="fill:#3673c2;fill-opacity:1;fill-rule:nonzero;stroke:none"
         d="M 957.68,155.438 V 142.41 c -9.278,6.848 -21.641,12.59 -34.442,14.133 -21.418,2.656 -37.539,-3.977 -50.343,-13.469 -18.329,-13.687 -33.563,-41.504 -25.176,-73.3006 4.863,-18.1015 17.453,-33.1132 32.238,-41.9531 26.277,-14.5664 56.523,-11.2578 77.723,5.5195 V 20.3125 C 945.316,12.5898 931.625,8.39844 917.055,7.94922 876.645,6.63281 846.176,34.668 837.348,67.1289 c -6.18,22.2969 -1.328,44.5981 8.164,60.7151 12.375,21.636 36.437,39.304 67.57,39.969 h 1.102 c 15.898,0.214 30.468,-4.864 43.496,-12.375" /><path
         id="path30"
         style="fill:#3673c2;fill-opacity:1;fill-rule:nonzero;stroke:none"
         d="M 998.387,9.27734 H 987.566 V 168.027 h 10.821 V 9.27734" /><path
         id="path32"
         style="fill:#3673c2;fill-opacity:1;fill-rule:nonzero;stroke:none"
         d="M 1158.76,162.512 V 0 c -39.53,46.1523 -78.83,92.5195 -118.13,138.66 V 9.27734 h -10.82 V 168.027 c 39.3,-46.367 78.82,-92.5114 118.13,-138.8786 V 162.512 h 10.82" /><path
         id="path34"
         style="fill:#3673c2;fill-opacity:1;fill-rule:nonzero;stroke:none"
         d="m 1307.36,136.895 c -13.47,13.464 -30.03,20.312 -49.24,20.312 -19.21,0 -35.55,-6.848 -49.01,-20.312 -13.25,-13.692 -19.88,-30.032 -19.88,-49.0122 0,-19.2109 6.63,-35.332 19.88,-48.8008 13.46,-13.4687 29.8,-20.3125 49.01,-20.3125 19.21,0 35.77,6.8438 49.24,20.3125 13.47,13.4688 20.31,29.5899 20.31,48.8008 0,19.2072 -6.84,35.5472 -20.31,49.0122 z m 20.31,-89.1997 C 1314.42,26.0547 1290.8,8.17578 1258.12,8.17578 c -16.56,0 -28.92,3.75002 -39.96,10.37892 -21.86,13.0273 -39.75,36.6484 -39.75,69.3281 0,14.5662 3.54,28.0352 10.39,40.1832 12.57,21.414 37.31,39.961 69.32,39.961 32.01,0 56.96,-18.547 69.55,-39.961 7.29,-12.363 10.82,-25.832 10.82,-40.1832 0,-14.5742 -3.53,-27.8242 -10.82,-40.1875" /><path
         id="path36"
         style="fill:#3673c2;fill-opacity:1;fill-rule:nonzero;stroke:none"
         d="m 1405.32,28.9258 49.02,139.1012 h 11.7 l -56.08,-156.9801 -0.44,-1.76956 h -9.05 C 1381.92,62.4883 1362.71,115.039 1343.94,168.027 h 11.26 l 50.12,-139.1012" /><path
         id="path38"
         style="fill:#3673c2;fill-opacity:1;fill-rule:nonzero;stroke:none"
         d="m 1494.31,9.27734 h -10.82 V 168.027 h 10.82 V 9.27734" /><path
         id="path40"
         style="fill:#3673c2;fill-opacity:1;fill-rule:nonzero;stroke:none"
         d="M 1636.06,155.438 V 142.41 c -9.27,6.848 -21.64,12.59 -34.44,14.133 -21.42,2.656 -37.54,-3.977 -50.34,-13.469 -18.33,-13.687 -33.57,-41.504 -25.18,-73.3006 4.86,-18.1015 17.45,-33.1132 32.24,-41.9531 26.28,-14.5664 56.52,-11.2578 77.72,5.5195 V 20.3125 C 1623.7,12.5898 1610.01,8.39844 1595.44,7.94922 1555.03,6.63281 1524.56,34.668 1515.73,67.1289 c -6.18,22.2969 -1.33,44.5981 8.16,60.7151 12.38,21.636 36.44,39.304 67.57,39.969 h 1.11 c 15.89,0.214 30.47,-4.864 43.49,-12.375" /><path
         id="path42"
         style="fill:#3673c2;fill-opacity:1;fill-rule:nonzero;stroke:none"
         d="m 1666.77,97.5977 h 79.92 v 70.4293 h 10.82 V 9.27734 h -10.82 V 87.0039 h -79.92 V 9.27734 h -10.82 V 168.027 h 10.82 V 97.5977" /><path
         id="path44"
         style="fill:#3673c2;fill-opacity:1;fill-rule:evenodd;stroke:none"
         d="m 988.68,616.141 384.43,-384.43 H 877.301 l 56.117,96.062 -31.746,73.817 57.125,137.289 29.883,77.262 v 0" /><path
         id="path46"
         style="fill:#80cc2a;fill-opacity:1;fill-rule:evenodd;stroke:none"
         d="M 988.68,616.141 958.887,538.844 655.551,231.711 H 533.094 l 56.117,96.062 8.871,66.317 L 435.699,231.711 H 384.398 L 623.73,471.039 733.648,361.109 988.68,616.141 v 0" /></g></g></svg>